<svg xmlns="http://www.w3.org/2000/svg" width="512" height="512" viewBox="0 0 512 512">
  <defs>
    <linearGradient id="g" x1="0" y1="0" x2="1" y2="1">
      <stop offset="0" stop-color="#3CB371"/>
      <stop offset="1" stop-color="#72e3b0"/>
    </linearGradient>
  </defs>
  <rect x="0" y="0" width="512" height="512" rx="112" fill="#0b1220"/>
  <rect x="88" y="88" width="336" height="336" rx="96" fill="url(#g)" opacity="0.95"/>
  <path d="M256 154c-44 0-80 36-80 80 0 30 16 56 40 70v54c0 22 18 40 40 40s40-18 40-40v-54c24-14 40-40 40-70 0-44-36-80-80-80Zm0 48a32 32 0 1 1 0 64 32 32 0 0 1 0-64Z" fill="#0b1220" opacity="0.92"/>
  <text x="256" y="420" text-anchor="middle" font-family="ui-sans-serif,system-ui,-apple-system,Segoe UI,Roboto,Arial" font-size="56" font-weight="900" fill="#0b1220" opacity="0.92">SW</text>
</svg>
